<?xml version="1.0" standalone="no"?>
<!DOCTYPE svg PUBLIC "-//W3C//DTD SVG 20010904//EN"
 "http://www.w3.org/TR/2001/REC-SVG-20010904/DTD/svg10.dtd">
<svg version="1.0" xmlns="http://www.w3.org/2000/svg"
 width="256.000000pt" height="256.000000pt" viewBox="0 0 256.000000 256.000000"
 preserveAspectRatio="xMidYMid meet">
<metadata>
Created by potrace 1.11, written by Peter Selinger 2001-2013
</metadata>
<g transform="translate(0.000000,256.000000) scale(0.100000,-0.100000)"
fill="#000000" stroke="none">
<path d="M343 1834 c-18 -20 -33 -40 -33 -45 0 -5 -4 -9 -8 -9 -16 0 -90 -127
-116 -200 -35 -97 -47 -167 -53 -310 -5 -109 10 -231 36 -295 45 -109 82 -164
166 -250 237 -241 501 -335 945 -335 424 0 687 88 916 307 139 133 190 231
224 427 34 201 -39 511 -150 636 l-31 35 37 -74 38 -74 0 -136 c1 -128 -14
-221 -34 -221 -4 0 -7 -12 -7 -27 0 -57 -24 -123 -45 -123 -5 0 -8 -9 -5 -20
3 -14 -1 -24 -14 -31 -11 -5 -17 -15 -13 -20 8 -13 -15 -69 -28 -69 -6 0 -8
-7 -5 -15 4 -8 -4 -22 -18 -34 -14 -10 -25 -25 -25 -32 -1 -20 -26 -50 -34
-42 -4 4 -9 -3 -12 -15 -6 -19 -30 -39 -98 -79 -11 -7 -26 -20 -33 -29 -12
-17 -13 -17 -13 0 0 16 -2 16 -15 6 -9 -7 -13 -20 -11 -27 4 -10 1 -13 -13 -8
-12 3 -33 -4 -56 -20 -21 -14 -48 -25 -61 -25 -13 0 -24 -4 -24 -9 0 -11 -49
-21 -55 -11 -6 10 -65 -1 -65 -12 0 -6 -11 -8 -24 -4 -12 3 -26 3 -30 -1 -3
-3 -23 -8 -43 -10 -20 -2 -43 -9 -49 -14 -9 -7 -14 -4 -19 10 -7 24 -25 28
-25 6 0 -20 -73 -20 -93 0 -13 13 -16 12 -22 -2 -5 -15 -7 -15 -16 -3 -8 13
-10 13 -18 0 -7 -11 -21 -15 -50 -12 -23 2 -41 8 -41 13 0 5 -5 9 -11 9 -6 0
-9 -7 -5 -15 6 -17 -9 -21 -19 -5 -4 6 -11 8 -16 5 -5 -4 -12 1 -15 9 -5 14
-10 13 -32 -5 -22 -17 -28 -18 -37 -7 -5 7 -21 14 -35 15 -142 7 -250 28 -263
50 -5 8 -16 11 -26 8 -10 -3 -24 1 -31 10 -7 8 -16 12 -21 9 -10 -6 -82 33
-117 64 -14 12 -29 22 -35 22 -17 0 -137 134 -137 153 0 9 -4 17 -10 17 -5 0
-10 5 -10 10 0 6 -9 20 -20 32 -11 12 -20 30 -20 40 0 10 -8 26 -19 37 -17 17
-30 52 -34 96 -1 11 -8 27 -16 35 -13 13 -12 15 2 18 21 4 21 11 2 33 -24 25
-28 116 -7 128 15 9 15 11 -3 32 -14 16 -16 23 -7 26 13 5 16 35 5 47 -12 12
-12 70 0 84 8 10 7 16 -4 23 -10 6 -10 9 -1 9 7 0 12 11 10 28 -1 15 2 38 7
52 10 31 65 117 94 148 12 12 18 22 14 22 -4 0 -23 -17 -40 -36z"/>
<path d="M685 1689 c-55 -27 -88 -62 -123 -128 -64 -120 -90 -297 -58 -402 75
-247 253 -330 408 -191 107 96 137 308 73 524 -24 83 -70 147 -135 185 -63 38
-106 41 -165 12z"/>
<path d="M1717 1686 c-80 -40 -125 -104 -157 -231 -42 -163 -32 -315 26 -419
61 -108 187 -163 285 -122 79 33 170 171 188 286 31 192 -63 432 -193 491 -54
25 -91 23 -149 -5z"/>
<path d="M2291 1424 c0 -11 3 -14 6 -6 3 7 2 16 -1 19 -3 4 -6 -2 -5 -13z"/>
<path d="M1200 676 c0 -2 7 -9 15 -16 12 -10 15 -10 15 4 0 9 -7 16 -15 16 -8
0 -15 -2 -15 -4z"/>
<path d="M1521 664 c0 -11 3 -14 6 -6 3 7 2 16 -1 19 -3 4 -6 -2 -5 -13z"/>
</g>
</svg>
